<?xml version="1.0" standalone="no"?>
<!DOCTYPE svg PUBLIC "-//W3C//DTD SVG 20010904//EN"
 "http://www.w3.org/TR/2001/REC-SVG-20010904/DTD/svg10.dtd">
<svg version="1.0" xmlns="http://www.w3.org/2000/svg"
 width="4122.000000pt" height="4122.000000pt" viewBox="0 0 4122.000000 4122.000000"
 preserveAspectRatio="xMidYMid meet">
<metadata>
Created by potrace 1.11, written by Peter Selinger 2001-2013
</metadata>
<g transform="translate(0.000000,4122.000000) scale(0.100000,-0.100000)"
fill="#000000" stroke="none">
<path d="M27267 41213 c-1 0 -1208 -4 -2682 -8 -1474 -3 -3364 -8 -4200 -10
-836 -2 -2663 -7 -4060 -10 -2433 -6 -5073 -13 -5390 -14 l-150 -1 -160 -96
c-88 -53 -178 -106 -200 -119 -85 -48 -430 -255 -440 -263 -5 -4 -17 -11 -25
-15 -8 -4 -32 -17 -52 -29 -82 -50 -373 -224 -412 -247 -37 -21 -467 -278
-711 -424 -55 -33 -113 -67 -128 -76 -16 -9 -36 -21 -45 -26 -9 -6 -107 -64
-217 -129 -110 -65 -216 -129 -235 -141 -19 -12 -79 -49 -133 -80 -104 -62
-102 -57 -42 -92 11 -6 148 -89 305 -185 157 -95 293 -177 303 -183 9 -5 209
-127 444 -270 235 -143 436 -264 445 -270 10 -5 84 -50 164 -100 81 -49 163
-99 183 -111 73 -43 536 -323 547 -331 5 -4 21 -14 35 -22 13 -8 148 -89 299
-181 l275 -166 395 3 c360 2 810 4 3520 18 481 3 1372 7 1980 10 608 3 1485 8
1950 10 794 4 1588 8 3885 20 2479 12 3105 16 3980 21 1637 9 2356 12 2865 14
l495 1 102 55 c56 29 124 66 150 80 114 62 173 94 248 134 44 24 103 55 130
70 48 26 606 327 765 413 41 22 98 52 125 67 57 32 126 69 240 130 44 23 100
54 125 67 25 14 83 46 130 70 47 25 128 69 180 98 52 28 136 74 185 100 50 26
115 61 145 78 177 95 219 118 463 249 188 101 181 90 82 148 -22 12 -166 97
-320 188 -154 91 -327 193 -385 227 -58 34 -278 164 -490 290 -377 223 -417
246 -482 284 -18 10 -75 44 -126 75 -51 31 -94 56 -96 56 -2 0 -33 18 -69 39
-128 78 -490 291 -494 291 -2 0 -23 12 -46 28 -65 42 -81 52 -97 59 -13 6
-167 96 -210 123 -8 5 -44 26 -80 47 l-65 38 -1448 0 c-797 0 -1449 -1 -1450
-2z"/>
<path d="M12162 34170 c1 -31 -36 -109 -61 -130 -3 -3 -19 -23 -36 -45 -29
-40 -62 -77 -205 -228 -89 -95 -78 -83 -266 -267 -165 -160 -313 -298 -489
-455 -43 -38 -83 -74 -89 -80 -6 -5 -45 -39 -86 -75 -77 -67 -135 -118 -154
-135 -6 -6 -38 -33 -71 -60 -32 -28 -66 -57 -75 -65 -8 -8 -56 -49 -105 -90
-50 -41 -92 -77 -95 -80 -3 -3 -70 -59 -150 -125 -80 -66 -154 -127 -165 -136
-11 -10 -74 -61 -140 -114 -66 -53 -128 -102 -137 -110 -175 -143 -798 -614
-976 -737 -18 -13 -45 -32 -60 -44 -54 -42 -402 -274 -558 -372 -357 -224
-644 -367 -843 -420 -73 -20 -179 -23 -247 -7 -34 8 -52 -6 -59 -46 -22 -111
-38 -1460 -51 -4179 -13 -2748 -14 -3974 -20 -13076 l-6 -9461 34 -16 c18 -8
85 -36 148 -60 120 -47 295 -121 390 -164 114 -53 478 -234 555 -276 207 -112
249 -136 385 -215 279 -163 577 -354 869 -556 267 -185 322 -224 386 -273 6
-5 73 -55 150 -112 114 -85 443 -337 505 -388 34 -27 106 -85 120 -96 71 -56
117 -94 128 -105 8 -7 30 -25 50 -40 33 -24 72 -57 106 -87 6 -5 45 -37 86
-70 41 -33 77 -62 80 -65 3 -3 122 -104 265 -225 143 -120 262 -221 265 -225
3 -3 36 -32 75 -65 38 -33 83 -72 100 -86 108 -94 289 -251 399 -347 l128
-112 137 -1 c629 -2 2765 -9 4621 -14 2545 -7 4152 -12 6750 -20 993 -3 2546
-7 3451 -10 l1645 -5 70 62 c155 136 208 184 229 203 11 11 43 40 70 64 28 25
95 86 150 137 55 51 111 102 125 114 13 12 69 63 124 113 55 51 110 101 122
112 57 52 220 202 234 215 9 8 54 49 100 89 47 41 90 80 95 85 6 6 48 45 95
85 47 41 90 80 95 86 22 23 419 359 565 477 816 660 1597 1126 2385 1423 190
71 514 176 593 191 18 4 36 12 39 18 4 6 8 187 9 401 1 215 5 1040 8 1835 4
795 8 1909 11 2475 2 567 7 1602 10 2300 3 699 7 1767 10 2375 3 608 7 1638
10 2290 3 652 7 1673 10 2270 2 597 7 1641 10 2320 7 1662 14 3222 20 4645 6
1259 12 2657 20 4580 l5 1190 -108 38 c-138 49 -451 171 -522 204 -30 14 -71
31 -91 38 -20 7 -45 18 -55 23 -11 5 -86 40 -169 77 -267 121 -649 314 -895
453 -63 36 -135 76 -160 90 -353 197 -1021 647 -1379 928 -63 49 -137 107
-165 128 -93 72 -403 334 -532 451 -310 280 -653 621 -884 880 -30 33 -59 65
-64 71 -17 17 -105 119 -186 214 -97 115 -95 112 -184 223 -43 55 -86 107 -95
116 -17 17 -57 18 -552 21 -294 1 -757 3 -1029 5 -1390 9 -2920 18 -4910 30
-520 3 -1294 7 -1720 10 -1350 8 -2478 15 -3380 21 -1446 8 -2080 12 -3250 19
-613 4 -1217 7 -1342 8 l-228 2 2 -35z m2473 -4555 c512 -3 1218 -8 1570 -10
744 -5 1996 -14 2980 -20 380 -3 1014 -7 1410 -10 396 -2 1098 -7 1560 -10
462 -3 1130 -7 1485 -10 355 -3 1034 -7 1510 -11 476 -3 1088 -7 1360 -9 272
-2 654 -4 848 -4 l352 -1 0 -5447 1 -5448 42 -31 c37 -28 383 -285 992 -739
300 -223 641 -477 885 -658 124 -92 232 -173 240 -180 9 -7 32 -25 53 -40 l38
-29 -233 -145 c-128 -79 -249 -155 -268 -168 -19 -12 -138 -87 -265 -165 -126
-79 -252 -157 -280 -175 -27 -17 -71 -45 -97 -61 -26 -16 -83 -51 -126 -79
-44 -27 -176 -111 -295 -185 -119 -74 -235 -146 -256 -160 -108 -67 -285 -177
-314 -194 -17 -11 -63 -40 -100 -64 l-68 -44 6 -237 c3 -130 8 -299 10 -376 9
-327 15 -572 20 -755 3 -107 7 -276 10 -375 3 -99 7 -270 10 -380 3 -110 7
-276 10 -370 8 -311 16 -588 20 -780 6 -229 14 -534 20 -745 2 -85 7 -258 10
-385 3 -126 8 -300 10 -385 2 -85 7 -254 10 -375 7 -278 13 -518 20 -760 12
-458 15 -562 20 -755 3 -113 7 -286 10 -385 3 -99 7 -270 10 -380 3 -110 7
-279 10 -375 3 -96 7 -269 10 -385 3 -115 7 -284 10 -375 3 -91 7 -259 10
-375 3 -115 7 -289 10 -385 3 -96 7 -267 10 -380 3 -113 7 -286 10 -385 3 -99
7 -261 10 -360 2 -99 7 -280 11 -402 l6 -222 -364 -1 c-379 -2 -797 -4 -2228
-14 -899 -7 -1780 -13 -3100 -21 -1315 -8 -2288 -15 -2990 -20 -608 -4 -1122
-8 -3020 -20 -2117 -14 -2507 -16 -2718 -18 -129 -1 -237 0 -241 3 -4 3 -8 43
-9 90 -1 128 -12 982 -17 1335 -6 423 -21 1544 -30 2275 -8 654 -14 1100 -20
1505 -3 209 -8 553 -10 765 -3 212 -7 545 -10 740 -8 609 -15 1141 -20 1510
-3 195 -7 544 -10 775 -3 231 -7 551 -10 710 -2 160 -7 522 -10 805 -6 513 -6
515 -28 535 -19 18 -120 102 -302 250 -186 152 -245 201 -280 230 -51 42 -106
87 -125 102 -8 6 -82 67 -165 135 -82 68 -235 193 -340 278 -104 85 -192 157
-195 160 -5 7 -229 188 -319 259 -31 25 -58 47 -61 50 -3 3 -27 24 -55 46 -27
21 -52 42 -55 45 -3 3 -27 24 -55 45 -27 22 -52 42 -55 46 -3 3 -22 18 -42 33
l-38 28 23 18 c12 9 105 70 207 135 244 156 493 314 610 390 52 34 106 68 120
75 14 7 27 16 30 19 3 4 27 20 54 36 56 34 63 39 189 119 50 33 148 95 217
139 69 44 154 99 190 122 36 22 99 63 140 89 41 26 165 105 275 175 l200 128
0 5539 c-1 3046 2 5541 6 5544 4 3 99 4 211 3 111 -1 622 -4 1133 -8z"/>
</g>
</svg>
